<svg width="20" height="18" viewBox="0 0 20 18" fill="none" xmlns="http://www.w3.org/2000/svg">
<g id="Group">
<path id="Vector" d="M3.45 13.92C2.34883 12.8762 1.47995 11.6121 0.899996 10.21C0.800953 9.97938 0.749878 9.73101 0.749878 9.48001C0.749878 9.22901 0.800953 8.98064 0.899996 8.75001C1.67019 6.87639 2.96114 5.26271 4.62 4.10001C6.1945 2.99972 8.07974 2.43205 10 2.48001C11.3816 2.44532 12.7519 2.73651 14 3.33001M16.56 5.05001C17.6553 6.09285 18.5204 7.35314 19.1 8.75001C19.199 8.98064 19.2501 9.22901 19.2501 9.48001C19.2501 9.73101 19.199 9.97938 19.1 10.21C18.3298 12.0836 17.0388 13.6973 15.38 14.86C13.8055 15.9603 11.9203 16.528 10 16.48C8.61841 16.5147 7.24809 16.2235 6 15.63" stroke="#494949" stroke-width="1.5" stroke-linecap="round" stroke-linejoin="round"/>
<path id="Vector_2" d="M6.71 10.65C6.56976 10.2759 6.4986 9.8795 6.5 9.48C6.5 8.55174 6.86875 7.6615 7.52513 7.00513C8.1815 6.34875 9.07174 5.98 10 5.98C10.4 5.978 10.796 6.05 11.17 6.19M13.29 8.31C13.43 8.684 13.502 9.08 13.5 9.48C13.5 10.4083 13.1313 11.2985 12.4749 11.9549C11.8185 12.6113 10.9283 12.98 10 12.98C9.6005 12.9814 9.20407 12.9102 8.83 12.77M1 17L17 1" stroke="#494949" stroke-width="1.5" stroke-linecap="round" stroke-linejoin="round"/>
</g>
</svg>
