<svg width="20" height="20" viewBox="0 0 20 20" fill="none" xmlns="http://www.w3.org/2000/svg">
<g id="Light mode 1" clip-path="url(#clip0_70_626)">
<g id="Group">
<g id="Group_2">
<g id="Group_3">
<path id="Vector" d="M10 5.85C7.7092 5.85 5.85 7.7092 5.85 10C5.85 12.2908 7.7092 14.15 10 14.15C12.2908 14.15 14.15 12.2908 14.15 10C14.15 7.7092 12.2908 5.85 10 5.85ZM1.7 10.83H3.36C3.8165 10.83 4.19 10.4565 4.19 10C4.19 9.5435 3.8165 9.17 3.36 9.17H1.7C1.2435 9.17 0.869995 9.5435 0.869995 10C0.869995 10.4565 1.2435 10.83 1.7 10.83ZM16.64 10.83H18.3C18.7565 10.83 19.13 10.4565 19.13 10C19.13 9.5435 18.7565 9.17 18.3 9.17H16.64C16.1835 9.17 15.81 9.5435 15.81 10C15.81 10.4565 16.1835 10.83 16.64 10.83ZM9.17 1.7V3.36C9.17 3.8165 9.5435 4.19 10 4.19C10.4565 4.19 10.83 3.8165 10.83 3.36V1.7C10.83 1.2435 10.4565 0.869995 10 0.869995C9.5435 0.869995 9.17 1.2435 9.17 1.7ZM9.17 16.64V18.3C9.17 18.7565 9.5435 19.13 10 19.13C10.4565 19.13 10.83 18.7565 10.83 18.3V16.64C10.83 16.1835 10.4565 15.81 10 15.81C9.5435 15.81 9.17 16.1835 9.17 16.64ZM5.01169 3.84139C4.68799 3.51769 4.1568 3.51769 3.84139 3.84139C3.51769 4.1651 3.51769 4.69629 3.84139 5.01169L4.72119 5.8915C5.04489 6.2152 5.5761 6.2152 5.8915 5.8915C6.2069 5.5678 6.2152 5.03659 5.8915 4.72119L5.01169 3.84139ZM15.2788 14.1085C14.9551 13.7848 14.4239 13.7848 14.1085 14.1085C13.7848 14.4322 13.7848 14.9634 14.1085 15.2788L14.9883 16.1586C15.312 16.4823 15.8432 16.4823 16.1586 16.1586C16.4823 15.8349 16.4823 15.3037 16.1586 14.9883L15.2788 14.1085ZM16.1586 5.01169C16.4823 4.68799 16.4823 4.1568 16.1586 3.84139C15.8349 3.51769 15.3037 3.51769 14.9883 3.84139L14.1085 4.72119C13.7848 5.04489 13.7848 5.5761 14.1085 5.8915C14.4322 6.2069 14.9634 6.2152 15.2788 5.8915L16.1586 5.01169ZM5.8915 15.2788C6.2152 14.9551 6.2152 14.4239 5.8915 14.1085C5.5678 13.7848 5.03659 13.7848 4.72119 14.1085L3.84139 14.9883C3.51769 15.312 3.51769 15.8432 3.84139 16.1586C4.1651 16.474 4.69629 16.4823 5.01169 16.1586L5.8915 15.2788Z" fill="#6400CA"/>
</g>
</g>
</g>
</g>
<defs>
<clipPath id="clip0_70_626">
<rect width="20" height="20" fill="white"/>
</clipPath>
</defs>
</svg>
