<svg width="16" height="16" viewBox="0 0 16 16" fill="none" xmlns="http://www.w3.org/2000/svg">
<g id="swap-vertical-circle-solid-svgrepo-com 1" clip-path="url(#clip0_163_2654)">
<g id="Layer 2">
<g id="icons Q2">
<path id="Vector" d="M8.00002 1.00008C6.54963 1.00008 5.1318 1.43017 3.92584 2.23597C2.71988 3.04176 1.77995 4.18707 1.22491 5.52706C0.669864 6.86706 0.52464 8.34154 0.807598 9.76407C1.09056 11.1866 1.78899 12.4933 2.81457 13.5189C3.84016 14.5444 5.14683 15.2429 6.56936 15.5258C7.99189 15.8088 9.46638 15.6636 10.8064 15.1085C12.1464 14.5535 13.2917 13.6136 14.0975 12.4076C14.9033 11.2016 15.3334 9.78381 15.3334 8.33341C15.3378 7.36915 15.1511 6.41357 14.7841 5.52185C14.4172 4.63014 13.8772 3.81996 13.1953 3.13812C12.5135 2.45628 11.7033 1.91628 10.8116 1.5493C9.91987 1.18233 8.96428 0.995663 8.00002 1.00008ZM8.10002 10.8334L6.46669 12.4667C6.40736 12.5314 6.33524 12.583 6.25491 12.6183C6.17457 12.6537 6.08778 12.6719 6.00002 12.6719C5.91227 12.6719 5.82547 12.6537 5.74514 12.6183C5.6648 12.583 5.59268 12.5314 5.53336 12.4667L3.90002 10.8334C3.77972 10.7203 3.70111 10.5699 3.67691 10.4066C3.65271 10.2433 3.68435 10.0765 3.76669 9.93341C3.8241 9.85249 3.89885 9.78541 3.98549 9.73706C4.07213 9.6887 4.16846 9.6603 4.26747 9.65391C4.36649 9.64752 4.46567 9.66331 4.5578 9.70013C4.64994 9.73695 4.73269 9.79387 4.80002 9.86674L5.33336 10.4001V5.33341C5.33336 5.1566 5.40359 4.98703 5.52862 4.86201C5.65364 4.73698 5.82321 4.66674 6.00002 4.66674C6.17683 4.66674 6.3464 4.73698 6.47143 4.86201C6.59645 4.98703 6.66669 5.1566 6.66669 5.33341V10.4001L7.20002 9.86674C7.26736 9.79387 7.35011 9.73695 7.44224 9.70013C7.53437 9.66331 7.63356 9.64752 7.73257 9.65391C7.83158 9.6603 7.92792 9.6887 8.01455 9.73706C8.10119 9.78541 8.17594 9.85249 8.23336 9.93341C8.3157 10.0765 8.34733 10.2433 8.32313 10.4066C8.29894 10.5699 8.22032 10.7203 8.10002 10.8334ZM12.2334 6.73341C12.1759 6.81433 12.1012 6.88141 12.0146 6.92976C11.9279 6.97812 11.8316 7.00652 11.7326 7.01291C11.6336 7.0193 11.5344 7.00351 11.4422 6.96669C11.3501 6.92987 11.2674 6.87294 11.2 6.80008L10.6667 6.26674V11.3334C10.6667 11.5102 10.5965 11.6798 10.4714 11.8048C10.3464 11.9298 10.1768 12.0001 10 12.0001C9.82321 12.0001 9.65364 11.9298 9.52862 11.8048C9.40359 11.6798 9.33336 11.5102 9.33336 11.3334V6.26674L8.80002 6.80008C8.73269 6.87294 8.64994 6.92987 8.5578 6.96669C8.46567 7.00351 8.36648 7.0193 8.26747 7.01291C8.16846 7.00652 8.07213 6.97812 7.98549 6.92976C7.89885 6.88141 7.8241 6.81433 7.76669 6.73341C7.67804 6.59211 7.64275 6.4238 7.6672 6.25879C7.69164 6.09379 7.77421 5.94293 7.90002 5.83341L9.53336 4.20008C9.59268 4.13542 9.6648 4.08379 9.74514 4.04847C9.82547 4.01315 9.91227 3.99492 10 3.99492C10.0878 3.99492 10.1746 4.01315 10.2549 4.04847C10.3352 4.08379 10.4074 4.13542 10.4667 4.20008L12.1 5.83341C12.2258 5.94293 12.3084 6.09379 12.3328 6.25879C12.3573 6.4238 12.322 6.59211 12.2334 6.73341Z" fill="#6400CA"/>
</g>
</g>
</g>
<defs>
<clipPath id="clip0_163_2654">
<rect width="16" height="16" fill="white"/>
</clipPath>
</defs>
</svg>
